<svg xmlns="http://www.w3.org/2000/svg" xmlns:xlink="http://www.w3.org/1999/xlink" id="Layer_1" x="0" y="0" version="1.1" viewBox="0 0 2566.4 2728.2" xml:space="preserve" style="enable-background:new 0 0 2566.4 2728.2"><style type="text/css">.st0{fill:#f7f7f7}.st1{fill:#fb1048}</style><rect width="245.3" height="245.3" x="153" y="873.5" class="st0"/><rect width="245.3" height="245.3" x="398.3" y="873.5" class="st0"/><rect width="245.3" height="245.3" x="643.6" y="873.5" class="st0"/><rect width="245.3" height="245.3" x="889" y="873.5" class="st0"/><rect width="245.3" height="245.3" x="1134.3" y="873.5" class="st0"/><rect width="245.3" height="245.3" x="1379.6" y="873.5" class="st0"/><rect width="245.3" height="245.3" x="1624.9" y="873.5" class="st0"/><rect width="245.3" height="245.3" x="1870.2" y="873.4" class="st0"/><rect width="245.3" height="245.3" x="2115.6" y="873.5" class="st0"/><rect width="167.2" height="167.2" x="911.1" y="652.6" class="st0"/><rect width="245.3" height="245.3" x="1134.3" y="574.4" class="st0"/><rect width="167.2" height="167.2" x="1435.6" y="652.6" class="st0"/><rect width="245.3" height="245.3" x="230.3" y="1908.4" class="st0"/><rect width="245.3" height="245.3" x="230.3" y="1663.1" class="st0"/><rect width="245.3" height="245.3" x="230.3" y="1417.8" class="st0"/><rect width="245.3" height="245.3" x="531.6" y="1908.4" class="st0"/><rect width="245.3" height="245.3" x="531.6" y="1663.1" class="st0"/><rect width="245.3" height="245.3" x="531.6" y="1417.8" class="st0"/><rect width="245.3" height="245.3" x="833" y="1908.4" class="st0"/><rect width="245.3" height="245.3" x="833" y="1663.1" class="st0"/><rect width="245.3" height="245.3" x="833" y="1417.8" class="st0"/><rect width="245.3" height="245.3" x="1134.3" y="1908.4" class="st0"/><rect width="245.3" height="245.3" x="1134.3" y="1663.1" class="st0"/><rect width="245.3" height="245.3" x="1134.3" y="1417.8" class="st0"/><rect width="245.3" height="245.3" x="1435.6" y="1908.4" class="st0"/><rect width="245.3" height="245.3" x="1435.6" y="1663.1" class="st0"/><rect width="245.3" height="245.3" x="1435.6" y="1417.8" class="st0"/><rect width="245.3" height="245.3" x="1736.9" y="1908.4" class="st1"/><rect width="245.3" height="245.3" x="1736.9" y="1663.1" class="st1"/><rect width="245.3" height="245.3" x="1736.9" y="1417.8" class="st1"/><rect width="245.3" height="245.3" x="2038.3" y="1908.4" class="st1"/><rect width="245.3" height="245.3" x="2038.3" y="1663.1" class="st1"/><rect width="245.3" height="245.3" x="2038.3" y="1417.8" class="st1"/><rect width="245.3" height="245.3" x="230.3" y="1172.5" class="st0"/><rect width="245.3" height="245.3" x="531.6" y="1172.5" class="st0"/><rect width="245.3" height="245.3" x="833" y="1172.5" class="st0"/><rect width="245.3" height="245.3" x="1134.3" y="1172.5" class="st0"/><rect width="245.3" height="245.3" x="1435.6" y="1172.5" class="st0"/><rect width="245.3" height="245.3" x="1736.9" y="1172.5" class="st1"/><rect width="245.3" height="245.3" x="2038.3" y="1172.5" class="st1"/></svg>